<?xml version="1.0" encoding="UTF-8"?>
<svg id="Calque_1" data-name="Calque 1" xmlns="http://www.w3.org/2000/svg" viewBox="0 0 600 400">
  <defs>
    <style>
      .cls-1 {
        fill: #a31008;
        opacity: .8;
        stroke-width: 0px;
      }
    </style>
  </defs>
  <g id="_2eme_chassure" data-name="2eme chassure">
    <path id="lacet" class="cls-1" d="M404.22,192.22s-2.83,9.82-9.67,9.73c-6.83-.09-10.5-6.73-10.17-8.22.33-1.48,3.5-6.96,5.67-7.68l-4.83-2.07s-6.83,8.58-12.5,6.23c0,0-10.67-2.18-4.67-13.31l-8.05-5.75s-12.18,7.27-19.82,4.23c0,0-9.92-2.36-1.2-11.12l-9.15-7.08s-6.63,9.61-15.96,7.08c0,0-16.09-6.24-.63-17.02l-5.93-3.2s-15.91,7.92-21.68,5.9c0,0-13.43-3.03-.93-13.48l-16.94-10.79s-23.35,2.87-14.79-10.11c0,0,1.94-3.37,6.75-2.19l6.83,3.2s2.56-2.36,4.85-1.35,14.88,8.26,15.75,18.71c0,0,9.66-.67,14.69,3.71,0,0,12.39,2.19,15.29,8.93,0,0,6.95.76,8.42,3.29,0,0,13.73,3.58,15.73,7.61,0,0,16.25.9,23,8.41,0,0,15.09.25,21.67,13.4,0,0,23.75,9.35,24.59,10.7l-.67,3.14-5.33-1.71-.33.82Z"/>
  </g>
</svg>